<svg width="104" height="120" viewBox="0 0 104 120" fill="none" xmlns="http://www.w3.org/2000/svg">
<rect x="0.5" y="16.5" width="103" height="103" rx="49.5" stroke="#C4C4C4"/>
<path d="M28.814 107.755C28.814 107.891 28.9239 108 29.0608 108H82.7532C82.8901 108 83.0001 107.891 83.0001 107.755C83.0001 107.62 82.8901 107.511 82.7532 107.511H29.0608C28.9239 107.511 28.814 107.62 28.814 107.755Z" fill="#484565"/>
<path d="M57.0499 0.068004C57.0499 0.068004 52.505 -1.02347 49.7544 5.57057C47.4623 11.067 45.836 14.0022 47.6967 15.9961C48.3625 16.7093 49.3126 17.0937 50.2917 17.1266L60.7671 17.4678C60.7671 17.4678 64.613 7.47397 62.2752 3.8604C59.9374 0.244777 57.0499 0.068004 57.0499 0.068004Z" fill="#2F2E41"/>
<path d="M59.2197 16.637L54.1812 18.2794V11.0913H58.753L59.2197 16.637Z" fill="#F6A6A9"/>
<path d="M55.3533 103.739H50.6321L47.896 78.748H55.1915L55.3533 103.739Z" fill="#F6A6A9"/>
<path d="M46.0352 107.755C45.5394 107.755 45.0976 107.743 44.7636 107.712C43.5086 107.599 42.3138 106.682 41.7122 106.146C41.4426 105.905 41.3554 105.521 41.4965 105.19C41.5981 104.951 41.7994 104.775 42.0483 104.705L45.361 103.768L50.7253 100.181L50.7854 100.288C50.8082 100.327 51.3351 101.268 51.5114 101.903C51.5778 102.146 51.5612 102.347 51.4596 102.501C51.3891 102.61 51.2916 102.672 51.2107 102.707C51.3082 102.808 51.6131 103.011 52.5486 103.159C53.9177 103.375 54.204 101.969 54.2164 101.909L54.2247 101.862L54.2662 101.835C54.9175 101.42 55.3179 101.231 55.4569 101.27C55.544 101.295 55.6871 101.338 56.075 105.165C56.1144 105.284 56.3862 106.166 56.2015 107.007C56.0003 107.924 51.9616 107.607 51.1526 107.535C51.1298 107.537 48.1054 107.751 46.0331 107.751V107.755H46.0352Z" fill="#2F2E41"/>
<path d="M66.0154 103.739H61.2962L58.5581 78.748H65.8536L66.0154 103.739Z" fill="#F6A6A9"/>
<path d="M56.6992 107.755C56.2035 107.755 55.7616 107.743 55.4277 107.712C54.1727 107.599 52.9779 106.682 52.3763 106.146C52.1066 105.905 52.0195 105.521 52.1606 105.19C52.2622 104.951 52.4634 104.775 52.7123 104.705L56.0251 103.768L61.3893 100.181L61.4495 100.288C61.4723 100.327 61.9992 101.268 62.1755 101.903C62.2419 102.146 62.2253 102.347 62.1237 102.501C62.0531 102.61 61.9556 102.672 61.8747 102.707C61.9722 102.808 62.2772 103.011 63.2127 103.159C64.5818 103.375 64.868 101.969 64.8805 101.909L64.8888 101.862L64.9302 101.835C65.5816 101.42 65.9819 101.231 66.1209 101.27C66.208 101.295 66.3512 101.338 66.7391 105.165C66.7785 105.284 67.0502 106.166 66.8656 107.007C66.6644 107.924 62.6256 107.607 61.8167 107.535C61.7938 107.537 58.7694 107.751 56.6972 107.751V107.755H56.6992Z" fill="#2F2E41"/>
<path d="M67.3739 42.3575H44.4399L52.6834 15.4736H61.8271L67.3739 42.3575Z" fill="#DDDEDF"/>
<path d="M43.8154 57.4428C43.5416 59.0893 42.4339 60.2712 41.3407 60.08C40.2475 59.8889 39.5817 58.4007 39.8555 56.7542C39.955 56.0944 40.2185 55.4716 40.623 54.9351L41.8717 47.9731L45.2716 48.6782L43.6785 55.4654C43.888 56.1068 43.9357 56.7851 43.8175 57.4428H43.8154Z" fill="#F6A6A9"/>
<path d="M54.1271 15.4777C54.1271 15.4777 48.431 15.3297 47.8315 16.8138C47.232 18.2999 40.1875 53.6504 40.1875 53.6504H44.834L54.1271 15.4777Z" fill="#DDDEDF"/>
<path d="M55.3364 12.7891C58.11 12.7891 60.3584 10.5612 60.3584 7.81279C60.3584 5.06442 58.11 2.83643 55.3364 2.83643C52.5629 2.83643 50.3145 5.06442 50.3145 7.81279C50.3145 10.5612 52.5629 12.7891 55.3364 12.7891Z" fill="#F6A6A9"/>
<path d="M56.1248 1.71006C56.1248 1.71006 49.6777 11.2126 50.7626 17.1407L47.0122 14.8118C47.0122 14.8118 49.6529 2.81181 53.5879 1.88067L56.1248 1.70801V1.71006Z" fill="#2F2E41"/>
<path d="M62.6072 42.3574H47.5578L39.3227 75.8477C39.1712 77.2618 40.0756 78.5815 41.4634 78.9494C45.9813 80.1478 56.8218 81.8477 73.232 77.1159C74.8106 76.6616 75.7067 75.0111 75.2109 73.4571L62.6072 42.3595V42.3574Z" fill="#2F2E41"/>
<path d="M42.3094 20.2428L42.2057 20.14L42.102 20.2428C37.0551 15.2458 28.876 15.252 23.8332 20.253C18.7905 25.2561 18.6888 33.4617 23.7357 38.4586L42.2182 56.7546L60.6881 38.436C65.7309 33.4329 65.6251 25.2273 60.5803 20.2304C55.5334 15.2335 47.3542 15.2397 42.3115 20.2407L42.3094 20.2428Z" fill="#00BFA6"/>
<path d="M55.959 17.9895L60.1284 15.8703C62.0347 15.1714 64.161 15.4058 65.8661 16.5054C71.0519 19.8477 81.2743 27.2166 76.8808 30.859C71.0913 35.6606 63.2648 27.1447 63.2648 27.1447L55.959 17.9895Z" fill="#DDDEDF"/>
<path d="M55.8675 21.6115C54.4176 20.7646 53.7061 19.3134 54.2807 18.3699C54.8553 17.4285 56.4961 17.3525 57.9481 18.1993C58.5331 18.5303 59.0247 18.9989 59.3815 19.5662L65.4801 23.2374L63.5883 26.1233L57.7759 22.1973C57.0956 22.1582 56.4401 21.9568 55.8655 21.6094H55.8675V21.6115Z" fill="#F6A6A9"/>
<path d="M60.0122 24.9393L61.7464 20.8345L70.2201 23.6135L66.4302 29.8643L60.0122 24.9393Z" fill="#DDDEDF"/>
</svg>
